<?xml version="1.0" standalone="no"?>
<!DOCTYPE svg PUBLIC "-//W3C//DTD SVG 20010904//EN"
 "http://www.w3.org/TR/2001/REC-SVG-20010904/DTD/svg10.dtd">
<svg version="1.0" xmlns="http://www.w3.org/2000/svg"
 width="700.000000pt" height="700.000000pt" viewBox="0 0 700.000000 700.000000"
 preserveAspectRatio="xMidYMid meet">
<metadata>
Created by potrace 1.11, written by Peter Selinger 2001-2013
</metadata>
<g transform="translate(0.000000,700.000000) scale(0.100000,-0.100000)"
fill="#000000" stroke="none">
<path d="M3245 6289 c-143 -13 -371 -56 -507 -95 -176 -50 -297 -97 -473 -184
-300 -147 -489 -284 -741 -535 -105 -105 -203 -215 -257 -287 -495 -663 -674
-1480 -502 -2288 104 -491 361 -969 719 -1338 297 -306 609 -516 988 -666 934
-368 1998 -207 2783 423 96 76 302 278 384 376 344 406 555 882 637 1441 25
167 25 561 0 728 -75 510 -246 926 -543 1324 -107 144 -388 427 -530 535 -395
300 -827 479 -1333 552 -128 19 -489 27 -625 14z m-641 -1778 c75 -37 128 -91
165 -170 22 -47 26 -70 26 -141 0 -76 -4 -93 -33 -152 -38 -77 -92 -130 -171
-167 -47 -22 -70 -26 -141 -26 -71 0 -94 4 -141 26 -79 37 -133 90 -171 167
-29 59 -33 76 -33 152 0 71 4 94 26 140 87 186 293 260 473 171z m2100 0 c75
-37 128 -91 165 -170 22 -47 26 -70 26 -141 0 -76 -4 -93 -33 -152 -38 -77
-92 -130 -171 -167 -47 -22 -70 -26 -141 -26 -71 0 -94 4 -141 26 -79 37 -133
90 -171 167 -29 59 -33 76 -33 152 0 71 4 94 26 140 87 186 293 260 473 171z
m-2053 -1683 c30 -14 90 -56 132 -94 143 -129 319 -221 502 -262 99 -22 326
-22 427 0 187 42 360 131 505 262 106 95 164 121 273 121 71 0 94 -4 141 -26
79 -37 133 -90 171 -167 29 -59 33 -76 33 -152 0 -137 -43 -210 -204 -344
-206 -172 -450 -298 -696 -359 -174 -44 -242 -52 -435 -52 -193 0 -261 8 -435
52 -246 61 -490 187 -696 359 -161 134 -204 207 -204 344 0 96 25 165 85 233
96 110 268 146 401 85z"/>
</g>
</svg>
